<?xml version="1.0" encoding="utf-8"?>
<!-- Generator: Adobe Illustrator 16.0.0, SVG Export Plug-In . SVG Version: 6.00 Build 0)  -->
<!DOCTYPE svg PUBLIC "-//W3C//DTD SVG 1.1//EN" "http://www.w3.org/Graphics/SVG/1.1/DTD/svg11.dtd">
<svg version="1.1" id="Layer_1" xmlns="http://www.w3.org/2000/svg" xmlns:xlink="http://www.w3.org/1999/xlink" x="0px" y="0px"
	 width="70px" height="70px" viewBox="0 0 70 70" enable-background="new 0 0 70 70" xml:space="preserve">
<rect x="-1.5" y="-1.5" fill="#1E1E1E" width="73" height="73"/>
<g>
	<path fill="#FFFFFF" d="M18.032,23.5v-8.388h1.872v6.72h3.576V23.5H18.032z"/>
</g>
<g>
	<path fill="#FFFFFF" d="M53.088,22.342c-0.848,0.828-1.893,1.242-3.132,1.242c-1.24,0-2.284-0.414-3.132-1.242
		c-0.848-0.828-1.272-1.858-1.272-3.09s0.425-2.262,1.272-3.09s1.892-1.242,3.132-1.242c1.239,0,2.284,0.414,3.132,1.242
		s1.271,1.858,1.271,3.09S53.936,21.514,53.088,22.342z M52.452,19.258c0-0.748-0.24-1.386-0.72-1.914
		c-0.48-0.528-1.07-0.792-1.771-0.792s-1.29,0.264-1.771,0.792c-0.479,0.528-0.719,1.166-0.719,1.914
		c0,0.749,0.239,1.384,0.719,1.908c0.48,0.524,1.07,0.786,1.771,0.786s1.29-0.262,1.771-0.786
		C52.212,20.642,52.452,20.006,52.452,19.258z"/>
</g>
<g>
	<path fill="#FFFFFF" d="M23.48,44.729h1.884v2.976c-0.832,0.929-1.984,1.392-3.456,1.392c-1.232,0-2.266-0.408-3.102-1.224
		c-0.836-0.815-1.254-1.847-1.254-3.09c0-1.244,0.426-2.282,1.278-3.114s1.88-1.248,3.084-1.248s2.25,0.396,3.138,1.188
		l-0.972,1.404c-0.376-0.328-0.722-0.554-1.038-0.678s-0.658-0.186-1.026-0.186c-0.712,0-1.312,0.242-1.8,0.726
		c-0.488,0.483-0.732,1.122-0.732,1.914s0.234,1.427,0.702,1.901c0.468,0.477,1.026,0.715,1.674,0.715s1.188-0.124,1.62-0.372
		V44.729z"/>
</g>
<g>
	<path fill="#FFFFFF" d="M53.088,47.842c-0.848,0.828-1.893,1.242-3.132,1.242c-1.24,0-2.284-0.414-3.132-1.242
		s-1.272-1.857-1.272-3.09s0.425-2.262,1.272-3.09s1.892-1.242,3.132-1.242c1.239,0,2.284,0.414,3.132,1.242s1.271,1.857,1.271,3.09
		S53.936,47.014,53.088,47.842z M52.452,44.758c0-0.748-0.24-1.386-0.72-1.914c-0.48-0.527-1.07-0.792-1.771-0.792
		s-1.29,0.265-1.771,0.792c-0.479,0.528-0.719,1.166-0.719,1.914s0.239,1.385,0.719,1.908c0.48,0.523,1.07,0.786,1.771,0.786
		s1.29-0.263,1.771-0.786C52.212,46.143,52.452,45.506,52.452,44.758z"/>
</g>
</svg>
